<svg xmlns="http://www.w3.org/2000/svg" viewBox="0 0 143.07 146.77"><defs><style>.cls-1,.cls-5{fill:none;}.cls-1,.cls-3,.cls-4,.cls-5{stroke:#1d6487;stroke-linecap:round;stroke-linejoin:round;stroke-width:1.82px;}.cls-1{stroke-dasharray:8.5;}.cls-2{fill:#28b9e4;}.cls-3{fill:#c5fbfc;}.cls-4,.cls-6{fill:#fff;}</style></defs><title>Asset 4</title><g id="Layer_2" data-name="Layer 2"><g id="Layer_1-2" data-name="Layer 1"><path class="cls-1" d="M.91,65.4A70.64,70.64,0,0,1,27.17,19.62"/><path class="cls-1" d="M100.79,139.27a70.94,70.94,0,0,1-52,3"/><path class="cls-1" d="M112.41,17.86a70.91,70.91,0,0,1,25.17,33.55"/><circle class="cls-2" cx="70.92" cy="75.28" r="54.56"/><path class="cls-3" d="M103.62,8.11v8.4H34.74V8.11A2.11,2.11,0,0,1,36.85,6h4.81V9a2.11,2.11,0,0,0,2.11,2.11h.9A2.11,2.11,0,0,0,46.78,9V6h7.06V9A2.11,2.11,0,0,0,56,11.1h.9A2.11,2.11,0,0,0,59,9V6H66V9a2.1,2.1,0,0,0,2.11,2.11H69A2.1,2.1,0,0,0,71.13,9V6H78.2V9a2.1,2.1,0,0,0,2.1,2.11h.9A2.11,2.11,0,0,0,83.31,9V6h7.06V9a2.1,2.1,0,0,0,2.11,2.11h.9A2.11,2.11,0,0,0,95.49,9V6h6A2.11,2.11,0,0,1,103.62,8.11Z"/><path class="cls-4" d="M103.62,16.51V50.85a2.11,2.11,0,0,1-2.1,2.11H36.85a2.11,2.11,0,0,1-2.11-2.11V16.51Z"/><rect class="cls-4" x="40.72" y="21.89" width="7.01" height="7.01" rx="1.27"/><rect class="cls-4" x="52.89" y="21.89" width="7.01" height="7.01" rx="1.27"/><rect class="cls-4" x="65.07" y="21.89" width="7.01" height="7.01" rx="1.27"/><rect class="cls-4" x="77.25" y="21.89" width="7.01" height="7.01" rx="1.27"/><rect class="cls-4" x="89.42" y="21.89" width="7.01" height="7.01" rx="1.27"/><rect class="cls-4" x="40.72" y="34.28" width="7.01" height="7.01" rx="1.27"/><rect class="cls-4" x="52.89" y="34.28" width="7.01" height="7.01" rx="1.27"/><rect class="cls-3" x="65.07" y="34.28" width="7.01" height="7.01" rx="1.27"/><rect class="cls-3" x="77.25" y="34.28" width="7.01" height="7.01" rx="1.27"/><rect class="cls-3" x="89.42" y="34.28" width="7.01" height="7.01" rx="1.27"/><line class="cls-5" x1="65.07" y1="46.66" x2="96.43" y2="46.66"/><line class="cls-5" x1="52.89" y1="46.66" x2="59.9" y2="46.66"/><line class="cls-5" x1="40.72" y1="46.66" x2="47.73" y2="46.66"/><rect class="cls-4" x="41.66" y="0.91" width="5.11" height="10.19" rx="2.11"/><rect class="cls-4" x="53.84" y="0.91" width="5.11" height="10.19" rx="2.11"/><rect class="cls-4" x="66.02" y="0.91" width="5.12" height="10.19" rx="2.11"/><rect class="cls-4" x="78.2" y="0.91" width="5.11" height="10.19" rx="2.11"/><rect class="cls-4" x="90.37" y="0.91" width="5.12" height="10.19" rx="2.11"/><rect class="cls-3" x="3.12" y="69.26" width="53.26" height="65.49" rx="4.61"/><rect class="cls-5" x="3.12" y="69.26" width="53.26" height="65.49" rx="4.61"/><rect class="cls-4" x="7.76" y="74.29" width="43.98" height="55.51"/><path class="cls-3" d="M41.85,68.88a1.53,1.53,0,0,0-1.54-1.53H36.77a2,2,0,0,1-2-2h0c-.17-3-2.18-4.83-4.86-4.79a4.47,4.47,0,0,0-4.7,4.57c0,.1,0,.2,0,.29a1.94,1.94,0,0,1-2,2H19.74a1.53,1.53,0,0,0-1.54,1.53l-1,7.38H42.86Z"/><circle class="cls-4" cx="30.02" cy="65.15" r="2.03"/><line class="cls-5" x1="24.5" y1="85.71" x2="42.86" y2="85.71"/><path class="cls-5" d="M15.71,84.25,18,86.63a.32.32,0,0,0,.42,0l4.31-5.44"/><line class="cls-5" x1="24.5" y1="97.39" x2="42.86" y2="97.39"/><path class="cls-5" d="M15.71,95.93,18,98.31a.3.3,0,0,0,.42,0l4.31-5.44"/><line class="cls-5" x1="24.5" y1="109.07" x2="42.86" y2="109.07"/><path class="cls-5" d="M15.71,107.61,18,110a.31.31,0,0,0,.42,0l4.31-5.44"/><line class="cls-5" x1="24.5" y1="120.75" x2="42.86" y2="120.75"/><path class="cls-5" d="M15.71,119.3,18,121.68a.32.32,0,0,0,.42,0l4.31-5.44"/><path class="cls-3" d="M129,93.75V123a2.07,2.07,0,0,1-2.07,2.08h-19.5a2.07,2.07,0,0,0-2.08,2.07h0a2.07,2.07,0,0,0,2.08,2.07h25.17V93.75a1.45,1.45,0,0,0-1.44-1.44h-.72A1.45,1.45,0,0,0,129,93.75Z"/><circle class="cls-4" cx="93.07" cy="87.98" r="10.67"/><path class="cls-6" d="M99.73,131.16c1,1.52,19,.41,19,.41a5.48,5.48,0,0,0,4.76-5.89c-.34-3-2.48-4.63-6-4.68l-10.67.21a3.38,3.38,0,0,1-3.24-2.21s-4.18-9.67-6.5-12.63l0,0a9.58,9.58,0,0,0-6.82-3.59c-8.76-.58-12.79,4.63-13.3,11.47l-1.42,18.36c9,1.4,17.27,2.47,19.1.5Z"/><path class="cls-4" d="M75.43,132.59l1.42-18.36c.51-6.84,4.54-12,13.3-11.47A9.58,9.58,0,0,1,97,106.35l0,0c2.32,3,6.5,12.63,6.5,12.63a3.38,3.38,0,0,0,3.24,2.21L117.4,121c3.56,0,5.7,1.68,6,4.68a5.48,5.48,0,0,1-4.76,5.89s-18,1.11-19-.41l-6.11-8.26"/><path class="cls-3" d="M142.16,131.2a1.87,1.87,0,0,0-1.79-1.94l-47.32-.19-.29,4.06h47.61A1.87,1.87,0,0,0,142.16,131.2Z"/><path class="cls-3" d="M138.89,66.83a15.46,15.46,0,1,0-14.33,16.51A15.47,15.47,0,0,0,138.89,66.83Z"/><path class="cls-3" d="M124.31,79.8a11.91,11.91,0,1,1,11-12.72A11.92,11.92,0,0,1,124.31,79.8Z"/><path class="cls-4" d="M135.34,67.08a11.9,11.9,0,1,0-11,12.72A11.9,11.9,0,0,0,135.34,67.08Z"/><path class="cls-4" d="M123.64,70.45a1.64,1.64,0,0,1-1.52-1.63s0-.07,0-.11a1.62,1.62,0,1,1,1.51,1.74Z"/><line class="cls-5" x1="123.87" y1="67.2" x2="123.87" y2="59.39"/><line class="cls-5" x1="122.13" y1="68.83" x2="116.05" y2="68.83"/><path class="cls-4" d="M125.37,68.94a1.63,1.63,0,0,1-3.25-.12s0-.07,0-.11a1.62,1.62,0,1,1,3.24.23Z"/></g></g></svg>