<svg xmlns="http://www.w3.org/2000/svg" viewBox="0 0 67.98 57.79"><defs><style>.cls-1{fill:#c5fbfc;}.cls-1,.cls-2{stroke:#00608c;stroke-linejoin:round;stroke-width:3.13px;}.cls-2{fill:#fff;stroke-linecap:round;}</style></defs><title>Asset 12</title><g id="Layer_2" data-name="Layer 2"><g id="Layer_1-2" data-name="Layer 1"><path class="cls-1" d="M57.61,1.56H10.37a8.8,8.8,0,0,0-8.81,8.81V37.69a8.8,8.8,0,0,0,8.81,8.8H20.6a4.4,4.4,0,0,1,3.12,1.29l7.16,7.16a4.39,4.39,0,0,0,6.22,0l7.16-7.16a4.4,4.4,0,0,1,3.11-1.29H57.61a8.8,8.8,0,0,0,8.8-8.8V10.37A8.8,8.8,0,0,0,57.61,1.56Z"/><circle class="cls-2" cx="33.99" cy="14.39" r="6.66"/><path class="cls-2" d="M47.08,39.83V34.15c0-3.68-4.48-6.66-10-6.66H30.89c-5.51,0-10,3-10,6.66v5.68"/></g></g></svg>