<svg xmlns="http://www.w3.org/2000/svg" viewBox="0 0 82.19 66.95"><defs><style>.cls-1{fill:#d0fdff;}.cls-2{fill:#fff;}.cls-3{fill:none;stroke:#366088;stroke-linecap:round;stroke-linejoin:round;stroke-width:2.08px;}</style></defs><title>Asset 13</title><g id="Layer_2" data-name="Layer 2"><g id="Layer_1-2" data-name="Layer 1"><polygon class="cls-1" points="25.27 6.38 21.72 11.78 41.61 24.83 53.39 24.83 25.27 6.38"/><polygon class="cls-1" points="65.73 32.77 65.73 40.66 74.28 46.26 77.89 40.9 65.73 32.77"/><path class="cls-1" d="M57.08,24.83h2.7a6,6,0,0,1,5.93,5.48L79,39.21l.4-.58a4.51,4.51,0,0,0-1.31-6.23L33,2.8a4.52,4.52,0,0,0-6.25,1.3l-.38.58Z"/><polygon class="cls-1" points="20.61 13.47 13.16 24.83 37.92 24.83 20.61 13.47"/><polygon class="cls-1" points="65.73 43.08 65.73 58.93 73.14 47.94 65.73 43.08"/><path class="cls-2" d="M62.9,63.14l.57-.85A3.91,3.91,0,0,0,63.71,61V30.87h0v-.08a3.94,3.94,0,0,0-3.93-3.93H6a3.93,3.93,0,0,0-3.93,3.93V61A3.94,3.94,0,0,0,6,64.9H59.78a3.91,3.91,0,0,0,3-1.36A.87.87,0,0,1,62.9,63.14ZM34.62,32.43h21a1,1,0,1,1,0,2h-21a1,1,0,1,1,0-2Zm22,7.44a1,1,0,0,1-1,1H41a1,1,0,0,1,0-2H55.6A1,1,0,0,1,56.62,39.87ZM7.51,35.26a4,4,0,0,1,4-4h14.1a4,4,0,0,1,4,4v9.48a4,4,0,0,1-4,4H11.51a4,4,0,0,1-4-4ZM56.78,58.74H8.52a1,1,0,0,1,0-2H56.78a1,1,0,1,1,0,2Z"/><rect class="cls-1" x="9.53" y="33.28" width="18.05" height="13.43" rx="1.97"/><line class="cls-3" x1="34.61" y1="33.44" x2="55.59" y2="33.44"/><line class="cls-3" x1="41.03" y1="39.86" x2="55.59" y2="39.86"/><line class="cls-3" x1="8.51" y1="57.72" x2="56.77" y2="57.72"/><path class="cls-3" d="M25.6,47.72H11.5a3,3,0,0,1-3-3V35.25a3,3,0,0,1,3-3H25.6a3,3,0,0,1,3,3v9.48A3,3,0,0,1,25.6,47.72Z"/><path class="cls-3" d="M63.73,63.7,80.25,39.19a5.52,5.52,0,0,0-1.59-7.64L33.55,2A5.52,5.52,0,0,0,25.9,3.54L11.27,25.84"/><line class="cls-3" x1="56.77" y1="25.84" x2="24.97" y2="4.97"/><line class="cls-3" x1="79.31" y1="40.62" x2="64.71" y2="30.86"/><line class="cls-3" x1="41.06" y1="25.68" x2="20.31" y2="12.06"/><line class="cls-3" x1="74.65" y1="47.72" x2="64.95" y2="41.36"/><rect class="cls-3" x="1.04" y="25.84" width="63.67" height="40.07" rx="4.94" transform="translate(65.75 91.74) rotate(180)"/></g></g></svg>