<svg xmlns="http://www.w3.org/2000/svg" viewBox="0 0 86.77 81.76"><defs><style>.cls-1{fill:#d0fdff;}.cls-1,.cls-2{stroke:#366088;stroke-linecap:round;stroke-linejoin:round;stroke-width:2.02px;}.cls-2{fill:#fff;}</style></defs><title>Asset 14</title><g id="Layer_2" data-name="Layer 2"><g id="Layer_1-2" data-name="Layer 1"><circle class="cls-1" cx="38.38" cy="63.35" r="7.11"/><circle class="cls-1" cx="78.65" cy="69.33" r="7.11"/><circle class="cls-1" cx="57.84" cy="73.64" r="7.11"/><path class="cls-2" d="M78.53,55.92c8.61-19.66,3.63-31.82,3.63-31.82-8.57,3.8-23.26.1-28.64-1.48a65.27,65.27,0,0,0-7.33-1.79c-22.84-3.76-31.35,3.25-31.35,3.25s6.77,14.49-1.25,29.68c-.21.4.2.83.68.71a90.3,90.3,0,0,1,24.38-2.64,55.46,55.46,0,0,1,13.7,2.42C57.44,55.79,70.57,59.19,78.53,55.92Z"/><ellipse class="cls-2" cx="49.55" cy="34.86" rx="10.52" ry="9.38" transform="translate(-0.18 0.26) rotate(-0.3)"/><path class="cls-2" d="M21.18,42.22c3.15.53,5.27,2.88,4.68,5.69"/><path class="cls-2" d="M24.21,21.5c.95,2.72-.76,5.62-3.81,6.47"/><path class="cls-2" d="M73.21,50.79c0-2.86,2.56-5.19,5.76-5.21"/><path class="cls-2" d="M81.44,28.69c-3.19.27-6-1.81-6.32-4.65"/><path class="cls-2" d="M80.18,51.71c7.64-20,2.08-31.93,2.08-31.93-8.38,4.11-23.23,1-28.69-.42a62,62,0,0,0-7.41-1.52c-23-2.92-31.17,4.4-31.17,4.4s7.47,14.22.19,29.69c-.19.41.25.82.71.69a90,90,0,0,1,24.24-3.54A56.3,56.3,0,0,1,53.94,51C59.09,52.35,72.38,55.26,80.18,51.71Z"/><path class="cls-1" d="M82.6,47.66C88.54,26.1,81.47,14,81.47,14c-8.36,5-24.27,2.93-30.13,1.93a66.2,66.2,0,0,0-7.94-1C19,13.81,11.17,22.16,11.17,22.16s9.32,14.29,3.3,31.11c-.16.44.34.84.82.66a93.94,93.94,0,0,1,25.05-5.71A59.11,59.11,0,0,1,55,49.08C60.56,50.07,74.8,52,82.6,47.66Z"/><path class="cls-2" d="M79.5,46.07c5.3-18,.41-28.68.41-28.68-7.5,4.12-23.24,2.06-28.41,1.17-2.19-.38-4.4-.68-6.62-.86C23.58,16,15.17,23,15.17,23a38,38,0,0,1,3.34,26.35.59.59,0,0,0,.82.62,87.51,87.51,0,0,1,22.41-4.52,55.85,55.85,0,0,1,13.1.87S76.17,49.72,79.5,46.07Z"/><circle class="cls-1" cx="49.27" cy="31.76" r="9.96"/><polygon class="cls-1" points="16.86 16.24 26.61 28.98 36.35 16.24 30.58 16.24 30.58 1.01 22.64 1.01 22.64 16.24 16.86 16.24"/><polygon class="cls-1" points="1.01 31.11 10.75 43.85 20.5 31.11 14.72 31.11 14.72 10.07 6.78 10.07 6.78 31.11 1.01 31.11"/></g></g></svg>