<svg xmlns="http://www.w3.org/2000/svg" viewBox="0 0 74.57 96.98"><defs><style>.cls-1{fill:#fff;}.cls-1,.cls-2,.cls-4{stroke:#226b80;stroke-width:2.07px;}.cls-1,.cls-2,.cls-3,.cls-4{stroke-linecap:round;stroke-linejoin:round;}.cls-2{fill:#b8e4c9;}.cls-3{fill:#d0fdff;stroke:#366088;stroke-width:1.82px;}.cls-4{fill:none;}</style></defs><title>Asset 15</title><g id="Layer_2" data-name="Layer 2"><g id="Layer_1-2" data-name="Layer 1"><path class="cls-1" d="M46.14,79.25s3.3-1.53,4.34-9.26a29.75,29.75,0,0,1,3.81-11.25c.2-.34.4-.66.59-1a55.54,55.54,0,0,1,3.53-5,26.66,26.66,0,0,0,5.48-17.11,26.21,26.21,0,1,0-46.7,17.19,42.19,42.19,0,0,1,2.61,3.73c.09.16.2.33.31.51a38.39,38.39,0,0,1,4.94,13.72c1.15,7,4.21,8.43,4.21,8.43"/><polyline class="cls-1" points="29.86 56.45 34.29 66.83 35.51 79.25"/><polyline class="cls-1" points="45.67 56.45 41.24 66.83 40.03 79.25"/><line class="cls-1" x1="58.45" y1="62.5" x2="67.99" y2="73.59"/><line class="cls-1" x1="66.16" y1="50.2" x2="73.54" y2="53.71"/><line class="cls-1" x1="64.84" y1="20.41" x2="72.21" y2="16.89"/><line class="cls-1" x1="68.61" y1="34.94" x2="73.54" y2="34.94"/><line class="cls-1" x1="54.7" y1="9.59" x2="57.48" y2="5.51"/><line class="cls-1" x1="16.13" y1="62.5" x2="6.58" y2="73.59"/><line class="cls-1" x1="8.41" y1="50.2" x2="1.03" y2="53.71"/><line class="cls-1" x1="9.74" y1="20.41" x2="2.36" y2="16.89"/><line class="cls-1" x1="5.96" y1="34.94" x2="1.03" y2="34.94"/><line class="cls-1" x1="19.87" y1="9.59" x2="17.1" y2="5.51"/><line class="cls-1" x1="37.7" y1="5.35" x2="37.7" y2="1.03"/><path class="cls-1" d="M42,91.41V94a2,2,0,0,1-2,2H35.38a2,2,0,0,1-2-2V91.41"/><path class="cls-2" d="M28.4,79.25H47a0,0,0,0,1,0,0V90.13a2.17,2.17,0,0,1-2.17,2.17H31.33a2.93,2.93,0,0,1-2.93-2.93V79.25A0,0,0,0,1,28.4,79.25Z"/><line class="cls-1" x1="28.4" y1="87.45" x2="47" y2="87.45"/><line class="cls-1" x1="28.4" y1="83.49" x2="47" y2="83.49"/><circle class="cls-3" cx="37.41" cy="36.91" r="14.58"/><path class="cls-4" d="M32.52,40s.39,4.65,5,4.75c0,0,4.18.15,4.62-3.59,0,0,.59-2.69-2.59-4.25a7.82,7.82,0,0,0-1.17-.44l-.6-.17c-1.2-.28-5.16-1.43-4.34-4.62a4,4,0,0,1,5-3.23,4.26,4.26,0,0,1,3.17,2.39,4.21,4.21,0,0,1,.33,1.67"/><line class="cls-1" x1="37.47" y1="26.44" x2="37.47" y2="47.38"/></g></g></svg>