<svg xmlns="http://www.w3.org/2000/svg" viewBox="0 0 133.79 143.88"><defs><style>.cls-1{fill:none;stroke:#366088;stroke-width:1.49px;stroke-dasharray:7.99;}.cls-1,.cls-3,.cls-4{stroke-linecap:round;stroke-linejoin:round;}.cls-2{fill:#28b9e4;}.cls-3{fill:#fff;}.cls-3,.cls-4{stroke:#1d6487;stroke-width:1.76px;}.cls-4{fill:#c5fbfc;}</style></defs><title>Asset 1</title><g id="Layer_2" data-name="Layer 2"><g id="Layer_1-2" data-name="Layer 1"><path class="cls-1" d="M2.81,30.94A71.61,71.61,0,0,1,52.49.75"/><path class="cls-1" d="M64.59,143.07c-1,0-2,.07-3,.07A71.61,71.61,0,0,1,.75,109.23"/><path class="cls-1" d="M127.79,44.68a71.72,71.72,0,0,1-3.68,61.6"/><circle class="cls-2" cx="61.56" cy="71.66" r="52.83"/><circle class="cls-3" cx="63.82" cy="72.89" r="38.18" transform="translate(-21.78 118.26) rotate(-76.72)"/><path class="cls-4" d="M99.4,91.89a5,5,0,0,0-3.16-2c-2.58-.47-6.67-.68-9-1.17A2.84,2.84,0,0,1,85,86.13L84.87,84a1,1,0,0,1,.31-.76,11,11,0,0,0,2.74-4.73,5.16,5.16,0,0,0,.23-1.13,1.28,1.28,0,0,0,1.21-1.11c.27-3.17.62-3.33.53-4.71s-.62-1.67-1.2-1.28a8.56,8.56,0,0,0,.16-2.13c-.31-6.36-5.31-9.84-10.94-9.45s-10,4.66-9.52,10.87a8.06,8.06,0,0,0,.45,2.1c-.63-.32-1.11,0-1,1.42s.47,1.5,1.18,4.6a1.28,1.28,0,0,0,1.35.93c0,.14.06.28.1.41a9.1,9.1,0,0,0,3.31,5,1,1,0,0,1,.43.72l.14,2.14a2.81,2.81,0,0,1-1.83,2.85c-2.23.82-5.66,1.74-8.16,2.56a5,5,0,0,0-2.61,2s7.71,8.26,19.58,7.22A26.35,26.35,0,0,0,99.4,91.89Z"/><path class="cls-4" d="M75.73,98.51a5.29,5.29,0,0,0-3.2-2.37c-2.7-.68-7-1.21-9.44-1.91a3,3,0,0,1-2.17-2.89V89.05a1,1,0,0,1,.38-.78,11.64,11.64,0,0,0,3.26-4.81,5.58,5.58,0,0,0,.33-1.18,1.35,1.35,0,0,0,1.35-1.08c.53-3.35.92-3.49.92-5S66.62,74.42,66,74.8a9.52,9.52,0,0,0,.33-2.25c.14-6.76-4.9-10.82-10.89-10.82s-10.94,4.2-10.89,10.82a8.25,8.25,0,0,0,.32,2.25c-.64-.38-1.18,0-1.18,1.44s.39,1.61.92,5a1.35,1.35,0,0,0,1.35,1.08c0,.15.05.3.08.44a9.76,9.76,0,0,0,3.13,5.55,1,1,0,0,1,.41.8v2.27a3,3,0,0,1-2.16,2.89c-2.42.7-6.13,1.42-8.83,2.11a5.24,5.24,0,0,0-2.92,2s7.56,9.32,20.21,9.09A28,28,0,0,0,75.73,98.51Z"/></g></g></svg>