<svg xmlns="http://www.w3.org/2000/svg" viewBox="0 0 147.73 148.57"><defs><style>.cls-1,.cls-5{fill:none;}.cls-1,.cls-3,.cls-4,.cls-5{stroke:#366088;stroke-linecap:round;stroke-linejoin:round;stroke-width:1.86px;}.cls-1{stroke-dasharray:9.29;}.cls-2{fill:#28b9e4;}.cls-3{fill:#d0fdff;}.cls-4{fill:#fff;}</style></defs><title>Asset 2</title><g id="Layer_2" data-name="Layer 2"><g id="Layer_1-2" data-name="Layer 1"><path class="cls-1" d="M6,102.61A71.48,71.48,0,0,1,40.31,12.43"/><path class="cls-1" d="M87.94,145.93a71.85,71.85,0,0,1-15.63,1.71,71.12,71.12,0,0,1-32.62-7.87"/><path class="cls-1" d="M106.34,13.49a71.41,71.41,0,0,1,36.88,54.45"/><circle class="cls-2" cx="72.31" cy="76.26" r="55.74"/><path class="cls-3" d="M111.7,142.16a28.78,28.78,0,1,1,28.78-28.78A28.81,28.81,0,0,1,111.7,142.16Z"/><path class="cls-4" d="M111.7,130.92a17.54,17.54,0,1,1,17.54-17.54A17.56,17.56,0,0,1,111.7,130.92Z"/><circle class="cls-3" cx="111.7" cy="113.38" r="7.43"/><path class="cls-4" d="M111.41,114.72V68.54s2.74-4.12,10.87-3.13c7.16.88,13.94,8.15,24.52,5.6V94.39c-12,4.11-18.46-2.66-24.37-4.38a11.43,11.43,0,0,0-11,2.31"/><path class="cls-4" d="M115.58,69.67a10.16,10.16,0,0,1,4.26-.81,16.51,16.51,0,0,1,2.06.13,25.68,25.68,0,0,1,6.94,2.45c3.82,1.74,8.16,3.71,13.5,3.71.46,0,.91,0,1.37,0"/><line class="cls-4" x1="111.41" y1="63.32" x2="111.41" y2="68.54"/><circle class="cls-3" cx="82.28" cy="21.86" r="20.94"/><path class="cls-5" d="M75.35,26.87c0,3,3,5.44,6.65,5.44s6.65-2.43,6.65-5.44-3-5.44-6.65-5.44c-3.36,0-6.2-2.27-6.2-5s2.73-5,6.1-5,6.1,2.24,6.1,5"/><line class="cls-4" x1="82" y1="33.98" x2="82" y2="9.56"/><path class="cls-3" d="M109,38.36a2.57,2.57,0,0,0-3-4L38.56,63.89a2.57,2.57,0,0,0,2.06,4.71l67.45-29.55A2.57,2.57,0,0,0,109,38.36Z"/><circle class="cls-4" cx="50.01" cy="9.9" r="4.77"/><path class="cls-4" d="M38.77,62.9A3.31,3.31,0,0,1,36.2,59a3.74,3.74,0,0,1,.12-.45c.19-.74,2.5-8.29,3.1-11.1l.25-11.68a3.31,3.31,0,1,1,6.61.14L46,48.21l-.07.31L42.73,60.16a3.37,3.37,0,0,1-4,2.74Z"/><path class="cls-4" d="M37.93,32.7l1.48-9.06.75-4.19a6.43,6.43,0,0,1,12.65,2.28l-.72,4-1.47,9a6.13,6.13,0,0,1-.54,1.73l5.12,4a6.23,6.23,0,0,1,2.24,4.43l.3,9A3.28,3.28,0,0,1,55.92,57a3.12,3.12,0,0,1-1.37.35,3.29,3.29,0,0,1-3.41-3.19l-.3-8.67s-7.33-5.36-7.59-5.4A6.44,6.44,0,0,1,37.93,32.7Z"/><path class="cls-4" d="M48.46,22.68l10.24.63a3,3,0,0,0,.95-.09,3.1,3.1,0,0,0,2-1.47l5.33-9.22a3.12,3.12,0,1,0-5.4-3.12L57.16,17l-9-2.58"/><path class="cls-4" d="M57.22,89.23v40.69a5.36,5.36,0,0,1-5.5,5.21H17.22a5.36,5.36,0,0,1-5.5-5.21V89.23"/><path class="cls-3" d="M11.72,89.23V84.71a5.36,5.36,0,0,1,5.5-5.2h34.5a5.36,5.36,0,0,1,5.5,5.2v4.52"/><path class="cls-4" d="M19.44,84.49h0a1.39,1.39,0,0,1-1.39-1.39V78.16a1.39,1.39,0,0,1,1.39-1.39h0a1.39,1.39,0,0,1,1.39,1.39V83.1A1.39,1.39,0,0,1,19.44,84.49Z"/><rect class="cls-4" x="28.07" y="76.77" width="2.79" height="7.73" rx="1.39"/><path class="cls-4" d="M39.48,84.49h0a1.4,1.4,0,0,1-1.4-1.39V78.16a1.4,1.4,0,0,1,1.4-1.39h0a1.39,1.39,0,0,1,1.39,1.39V83.1A1.39,1.39,0,0,1,39.48,84.49Z"/><rect class="cls-4" x="48.1" y="76.77" width="2.79" height="7.73" rx="1.39"/><line class="cls-4" x1="12" y1="89.23" x2="57.22" y2="89.23"/><line class="cls-4" x1="20.6" y1="93.11" x2="47.2" y2="93.11"/><line class="cls-4" x1="24.24" y1="96.23" x2="43.55" y2="96.23"/><rect class="cls-4" x="26.24" y="100.39" width="15.32" height="10.3"/><line class="cls-4" x1="29.11" y1="107.26" x2="29.11" y2="110.69"/><line class="cls-4" x1="32.08" y1="106.19" x2="32.08" y2="110.69"/><line class="cls-4" x1="35.04" y1="105.48" x2="35.04" y2="110.69"/><line class="cls-4" x1="38" y1="102.64" x2="38" y2="110.69"/><line class="cls-4" x1="33.33" y1="115.02" x2="52.35" y2="115.02"/><line class="cls-4" x1="16" y1="115.02" x2="30.84" y2="115.02"/><line class="cls-4" x1="40.71" y1="120.05" x2="52.35" y2="120.05"/><line class="cls-4" x1="16" y1="120.05" x2="38.57" y2="120.05"/><line class="cls-4" x1="32.71" y1="125.08" x2="52.35" y2="125.08"/><line class="cls-4" x1="16" y1="125.08" x2="30.57" y2="125.08"/><line class="cls-4" x1="40.97" y1="130.11" x2="45.71" y2="130.11"/><line class="cls-4" x1="16" y1="130.11" x2="39.55" y2="130.11"/><path class="cls-3" d="M55.63,122.4l17.2-34.71a3.08,3.08,0,0,0-1.72-4,3.13,3.13,0,0,0-4.22,1.07L49.7,119.48"/><path class="cls-4" d="M49.7,119.48a1.68,1.68,0,0,0-.17.49l-1.41,9.85c0,.18.09.25.21.1l7-7.09a2.49,2.49,0,0,0,.29-.43"/><line class="cls-4" x1="65.37" y1="89.03" x2="70.29" y2="91.46"/><line class="cls-5" x1="49.14" y1="124.66" x2="51.88" y2="125.99"/><line class="cls-4" x1="66.45" y1="85.68" x2="72.39" y2="88.58"/><line class="cls-5" x1="52.67" y1="121.16" x2="67.79" y2="90.24"/><line class="cls-4" x1="50.08" y1="119.89" x2="55.1" y2="122.34"/></g></g></svg>