<svg xmlns="http://www.w3.org/2000/svg" viewBox="0 0 139.76 152.42"><defs><style>.cls-1,.cls-4{fill:none;}.cls-1,.cls-4,.cls-5,.cls-6{stroke:#366088;stroke-linecap:round;stroke-linejoin:round;stroke-width:1.49px;}.cls-1{stroke-dasharray:7.99;}.cls-2{fill:#28b9e4;}.cls-3,.cls-5{fill:#fff;}.cls-6{fill:#d0fdff;}</style></defs><title>Asset 16</title><g id="Layer_2" data-name="Layer 2"><g id="Layer_1-2" data-name="Layer 1"><path class="cls-1" d="M8.78,39.48A71.61,71.61,0,0,1,58.46,9.29"/><path class="cls-1" d="M70.56,151.61c-1,0-2,.07-3,.07a71.71,71.71,0,0,1-55.55-26.41,74.16,74.16,0,0,1-5.34-7.5"/><path class="cls-1" d="M133.76,53.22a71.72,71.72,0,0,1-3.68,61.6"/><circle class="cls-2" cx="67.54" cy="80.2" r="52.83"/><path class="cls-3" d="M105,53.93c.28.56.74,1,1.07,1.57l.29.48a14.78,14.78,0,0,1,1.89,5.58c.51,3.84,2.15,4.6,2.15,4.6h8.48s1.64-.76,2.16-4.6A14.78,14.78,0,0,1,123,56l.29-.48A27.08,27.08,0,0,1,125,53a13.33,13.33,0,0,0,2.72-8.5,13.09,13.09,0,0,0-13.53-12.58A12.92,12.92,0,0,0,106,35.28S96.76,43,105,53.93Z"/><path class="cls-4" d="M118.92,66.16s1.64-.76,2.16-4.6A14.78,14.78,0,0,1,123,56l.29-.48A27.08,27.08,0,0,1,125,53a13.33,13.33,0,0,0,2.72-8.5,13.09,13.09,0,0,0-13.53-12.58A12.92,12.92,0,0,0,106,35.28"/><path class="cls-5" d="M110.12,66.16v5a1.51,1.51,0,0,0,1.51,1.51h1v.82a1,1,0,0,0,1,1h2.31a1,1,0,0,0,1-1v-.82h1.35a1.12,1.12,0,0,0,1.12-1.12V66.16Z"/><line class="cls-5" x1="110.12" y1="69.6" x2="119.35" y2="69.6"/><polyline class="cls-5" points="110.54 55.88 112.74 59.28 113.34 66.16"/><polyline class="cls-5" points="118.99 55.88 116.79 59.28 116.19 66.16"/><path class="cls-5" d="M110.44,66.16s-1.64-.76-2.15-4.6A14.78,14.78,0,0,0,106.4,56l-.29-.48c-.33-.54-.7-1.06-1.07-1.57"/><path class="cls-6" d="M106.83,46.67h1.27a.33.33,0,0,1,.31.24,7.33,7.33,0,0,0,.43,1,.33.33,0,0,1,0,.39l-.9.9a.62.62,0,0,0,0,.87l1.68,1.67a.6.6,0,0,0,.86,0l.9-.9a.33.33,0,0,1,.39-.05,6.08,6.08,0,0,0,1,.43.34.34,0,0,1,.23.31v1.27a.61.61,0,0,0,.61.62H116a.61.61,0,0,0,.61-.62V51.57a.34.34,0,0,1,.24-.31,6.81,6.81,0,0,0,1-.43.32.32,0,0,1,.38.05l.9.9a.62.62,0,0,0,.87,0l1.67-1.67a.62.62,0,0,0,0-.87l-.9-.9a.33.33,0,0,1,0-.39,6.32,6.32,0,0,0,.43-1,.34.34,0,0,1,.32-.24h1.26a.61.61,0,0,0,.62-.61V43.69a.61.61,0,0,0-.62-.61H121.5a.34.34,0,0,1-.32-.24,6.32,6.32,0,0,0-.43-1,.33.33,0,0,1,0-.39l.9-.9a.62.62,0,0,0,0-.87L120,38a.62.62,0,0,0-.87,0l-.9.9a.32.32,0,0,1-.38.05,6.81,6.81,0,0,0-1-.43.34.34,0,0,1-.24-.31V36.91a.61.61,0,0,0-.61-.62h-2.37a.61.61,0,0,0-.61.62v1.27a.34.34,0,0,1-.23.31,6.08,6.08,0,0,0-1,.43.33.33,0,0,1-.39-.05l-.9-.9a.6.6,0,0,0-.86,0l-1.68,1.67a.62.62,0,0,0,0,.87l.9.9a.33.33,0,0,1,0,.39,7.33,7.33,0,0,0-.43,1,.33.33,0,0,1-.31.24h-1.27a.61.61,0,0,0-.61.61v2.37A.61.61,0,0,0,106.83,46.67Zm4.62-1.79a3.35,3.35,0,1,1,3.35,3.35A3.35,3.35,0,0,1,111.45,44.88Z"/><line class="cls-4" x1="98.24" y1="9.75" x2="102.06" y2="14.54"/><line class="cls-4" x1="98.27" y1="9.66" x2="104.26" y2="8.36"/><line class="cls-4" x1="101.81" y1="65.67" x2="95.75" y2="64.82"/><line class="cls-4" x1="101.85" y1="65.75" x2="98.4" y2="70.81"/><path class="cls-4" d="M100.5,66.45a29.62,29.62,0,0,1-39.16-28,30,30,0,0,1,.35-4.58"/><path class="cls-4" d="M98.42,9.82a29.67,29.67,0,0,1,20.48,19"/><circle class="cls-3" cx="77.08" cy="17.99" r="11.01"/><path class="cls-6" d="M61.19,21.94l2.54-.05a.66.66,0,0,1,.64.45,12.51,12.51,0,0,0,.92,2.08.68.68,0,0,1-.1.78L63.43,27a1.23,1.23,0,0,0,0,1.74l3.43,3.28a1.23,1.23,0,0,0,1.74,0l1.76-1.84a.67.67,0,0,1,.77-.13,12.61,12.61,0,0,0,2.12.83.67.67,0,0,1,.48.61l0,2.55a1.23,1.23,0,0,0,1.26,1.2l4.74-.1A1.24,1.24,0,0,0,81,33.88L81,31.34a.68.68,0,0,1,.46-.64,13.79,13.79,0,0,0,2.08-.91.65.65,0,0,1,.77.09l1.84,1.76a1.23,1.23,0,0,0,1.74,0l3.28-3.43a1.22,1.22,0,0,0,0-1.74l-1.83-1.76a.65.65,0,0,1-.13-.77A12.58,12.58,0,0,0,90,21.78a.68.68,0,0,1,.62-.48l2.54-.05A1.23,1.23,0,0,0,94.32,20l-.1-4.74A1.24,1.24,0,0,0,93,14l-2.54.06a.66.66,0,0,1-.63-.45,13.51,13.51,0,0,0-.92-2.09.65.65,0,0,1,.09-.77L90.72,9a1.22,1.22,0,0,0,0-1.74L87.26,3.93a1.23,1.23,0,0,0-1.74,0L83.76,5.8a.65.65,0,0,1-.77.13,13.28,13.28,0,0,0-2.12-.82.65.65,0,0,1-.48-.62L80.33,2A1.22,1.22,0,0,0,79.07.75l-4.74.1a1.22,1.22,0,0,0-1.2,1.26l.05,2.54a.67.67,0,0,1-.45.64,12.48,12.48,0,0,0-2.08.91.66.66,0,0,1-.78-.09L68,4.35a1.23,1.23,0,0,0-1.75,0L63,7.81a1.23,1.23,0,0,0,0,1.74l1.84,1.76a.67.67,0,0,1,.13.77,13.32,13.32,0,0,0-.83,2.12.64.64,0,0,1-.61.48L61,14.74A1.23,1.23,0,0,0,59.83,16l.1,4.74A1.23,1.23,0,0,0,61.19,21.94Zm7.53-3.76a8.36,8.36,0,1,1,8.54,8.17A8.37,8.37,0,0,1,68.72,18.18Z"/><circle class="cls-3" cx="91.18" cy="46.27" r="7.81"/><path class="cls-6" d="M83,54.4l1.53-.93a.47.47,0,0,1,.54.05,9.72,9.72,0,0,0,1.29.95.46.46,0,0,1,.21.5l-.42,1.73a.86.86,0,0,0,.63,1l3.23.79a.86.86,0,0,0,1-.63l.42-1.73a.46.46,0,0,1,.43-.35,10.65,10.65,0,0,0,1.57-.24.46.46,0,0,1,.51.2l.93,1.53a.85.85,0,0,0,1.18.29L99,55.88a.85.85,0,0,0,.29-1.18l-.93-1.53a.45.45,0,0,1,.06-.54,9.64,9.64,0,0,0,.94-1.29.47.47,0,0,1,.51-.21l1.73.42a.86.86,0,0,0,1-.63l.8-3.23a.87.87,0,0,0-.64-1L101,46.22a.47.47,0,0,1-.35-.43,8.4,8.4,0,0,0-.24-1.57.45.45,0,0,1,.21-.51l1.52-.93a.85.85,0,0,0,.29-1.18l-1.72-2.85a.86.86,0,0,0-1.19-.29L98,39.38a.47.47,0,0,1-.55-.05,8.51,8.51,0,0,0-1.29-.94.47.47,0,0,1-.21-.51l.42-1.73a.85.85,0,0,0-.63-1l-3.23-.8a.88.88,0,0,0-1.05.64l-.42,1.73a.47.47,0,0,1-.42.35,8.5,8.5,0,0,0-1.58.24.46.46,0,0,1-.51-.21l-.92-1.52a.86.86,0,0,0-1.19-.29L83.6,37a.88.88,0,0,0-.29,1.19l.93,1.52a.48.48,0,0,1,0,.55,8.57,8.57,0,0,0-1,1.29.46.46,0,0,1-.5.21L81,41.3a.86.86,0,0,0-1,.64l-.79,3.23a.85.85,0,0,0,.63,1l1.73.43a.46.46,0,0,1,.35.42,10.58,10.58,0,0,0,.24,1.58.47.47,0,0,1-.2.51l-1.53.92a.86.86,0,0,0-.29,1.19l1.73,2.84A.86.86,0,0,0,83,54.4Zm3.25-4.93a5.87,5.87,0,1,1,8.06,2A5.87,5.87,0,0,1,86.26,49.47Z"/><rect class="cls-6" x="0.75" y="49.95" width="52.07" height="64.02" rx="4.51"/><path class="cls-6" d="M38.61,49.58a1.5,1.5,0,0,0-1.5-1.5H33.64a1.92,1.92,0,0,1-1.91-2h0c-.17-3-2.13-4.72-4.75-4.68a4.37,4.37,0,0,0-4.6,4.47c0,.09,0,.19,0,.28a1.89,1.89,0,0,1-1.91,1.91H17a1.5,1.5,0,0,0-1.5,1.5l-1,7.22H39.6Z"/><circle class="cls-6" cx="27.05" cy="45.93" r="1.99"/><rect class="cls-5" x="5.28" y="54.87" width="42.99" height="54.27"/><line class="cls-4" x1="21.65" y1="71.87" x2="39.6" y2="71.87"/><path class="cls-4" d="M13.06,70.45l2.2,2.32a.31.31,0,0,0,.42,0l4.21-5.32"/><line class="cls-4" x1="21.65" y1="81.42" x2="39.6" y2="81.42"/><path class="cls-4" d="M13.06,80l2.2,2.32a.31.31,0,0,0,.42,0L19.89,77"/><line class="cls-4" x1="21.65" y1="90.97" x2="39.6" y2="90.97"/><path class="cls-4" d="M13.06,89.54l2.2,2.33a.3.3,0,0,0,.42,0l4.21-5.31"/><circle class="cls-6" cx="50.29" cy="99.8" r="14.89"/><path class="cls-5" d="M50.29,111A11.2,11.2,0,1,1,61.48,99.8,11.21,11.21,0,0,1,50.29,111Z"/><polyline class="cls-5" points="50.29 91.27 50.29 99.8 56.15 105.07"/><g id="coaching"><g id="okey"><path class="cls-3" d="M97,100.63A12.57,12.57,0,0,1,90.72,123l1.16-7.32a6.17,6.17,0,0,0,2.75-5.37s.11-5-8-7.53l-.57,1.06-5.75,11.41a3.39,3.39,0,0,1-4.57,1.53h0a3.39,3.39,0,0,1-1.77-2.4c-.12-.61,3-11.34,3.88-16.06l1-4.48.2-.91s1-2.48,1.37-3L79,93.15l-1-.64L74,89.75c-.75-.51,8.49-14.68,9.15-14.24l4.26,2.89.48.36c3.35-2.62,7.42.64,7.42.64L99,81.89l9.21,6.16,4.24,3,7,5a3.25,3.25,0,0,1,.38,4.48h0a3.16,3.16,0,0,1-4.29,1.14l-4.82-3"/><path class="cls-4" d="M83.15,75.51l4.26,2.89.48.36c3.35-2.62,7.42.64,7.42.64L99,81.89l9.21,6.16,4.24,3,7,5a3.25,3.25,0,0,1,.38,4.48h0a3.16,3.16,0,0,1-4.29,1.14l-4.82-3"/><path class="cls-4" d="M97,100.63A12.57,12.57,0,0,1,90.72,123l1.16-7.32a6.17,6.17,0,0,0,2.75-5.37s.11-5-8-7.53l-.57,1.06-5.75,11.41a3.39,3.39,0,0,1-4.57,1.53h0a3.39,3.39,0,0,1-1.77-2.4c-.12-.61,3-11.34,3.88-16.06l1-4.48.2-.91s1-2.48,1.37-3L79,93.15l-1-.64L74,89.75"/><path class="cls-5" d="M103,90.15a60,60,0,0,1,4.77,5l3.41,4.1,5.67,6.79a3.32,3.32,0,0,1-.74,4.52h0a3.16,3.16,0,0,1-4.49,0l-1.47-1.47"/><path class="cls-5" d="M99.89,95.85c7.56,2.05,11,15.84,11.28,16L114,120c.51,1.47-.67,3.26-2.61,4h0c-2,.72-4,.09-4.47-1.38l-3.42-9.81L101.36,107s-1.16-3.27-5.71-7.17"/><path class="cls-4" d="M115,103.75a3.15,3.15,0,0,0-2.9,2.36,3.71,3.71,0,0,0,1.32,3.19"/><path class="cls-4" d="M117,94.33a3.11,3.11,0,0,0-2,3.06,3.56,3.56,0,0,0,2,2.69"/><path class="cls-4" d="M112.5,116.24a2.89,2.89,0,0,0-3.21,1.38,3.62,3.62,0,0,0,.27,3.32"/></g><path class="cls-5" d="M75.12,140v5.88a2.06,2.06,0,0,0,2,2.08h52.72a2.26,2.26,0,0,0,2.25-2.28V122.1a1.84,1.84,0,0,0-1.83-1.86h-11a.7.7,0,0,0-.7.71v5.42a.7.7,0,0,1-.7.7H104a.7.7,0,0,0-.7.71v4.68a.7.7,0,0,1-.7.71H89.75a.7.7,0,0,0-.7.7v4.67a.69.69,0,0,1-.69.7H75.81a.7.7,0,0,0-.69.71Z"/><path class="cls-6" d="M74.64,115.85a2.88,2.88,0,0,0-.8,4.65l1.61,1.6a2.87,2.87,0,0,1,.8,2.55l-.4,2.24A2.87,2.87,0,0,0,80,130l2-1a2.85,2.85,0,0,1,2.66,0l2,1.07a2.86,2.86,0,0,0,4.17-3l-.36-2.24a2.9,2.9,0,0,1,.84-2.54l1.63-1.57a2.88,2.88,0,0,0-1.54-4.92l-2.24-.34A2.89,2.89,0,0,1,87,113.8l-1-2a2.85,2.85,0,0,0-2.94-1.6l-.24.11"/><ellipse class="cls-5" cx="83.41" cy="121.08" rx="3.79" ry="3.85"/><path class="cls-5" d="M86.65,102.79l-.57,1.06-5.75,11.41a3.39,3.39,0,0,1-4.57,1.53h0a3.39,3.39,0,0,1-1.77-2.4c-.12-.61,3-11.34,3.88-16.06l1-4.48"/><path class="cls-4" d="M77,114.48l.8-1.72a2.54,2.54,0,0,0-1.18-3.37h0l-1-.37"/></g></g></g></svg>