<svg xmlns="http://www.w3.org/2000/svg" viewBox="0 0 89.91 81.48"><defs><style>.cls-1{fill:#28b9e4;}.cls-2{fill:#c5fbfc;}.cls-2,.cls-3,.cls-4{stroke:#1d6487;stroke-linecap:round;stroke-linejoin:round;stroke-width:1.76px;}.cls-3{fill:none;}.cls-4{fill:#fff;}</style></defs><title>Asset 6</title><g id="Layer_2" data-name="Layer 2"><g id="Layer_1-2" data-name="Layer 1"><circle class="cls-1" cx="40.74" cy="40.74" r="40.74"/><rect class="cls-2" x="37.37" y="13.21" width="51.66" height="63.52" rx="4.47"/><rect class="cls-3" x="37.37" y="13.21" width="51.66" height="63.52" rx="4.47"/><rect class="cls-4" x="41.87" y="18.09" width="42.65" height="53.84"/><path class="cls-2" d="M74.93,12.85a1.49,1.49,0,0,0-1.49-1.49H70a1.92,1.92,0,0,1-1.91-2h0a4.51,4.51,0,0,0-4.71-4.64,4.33,4.33,0,0,0-4.56,4.43c0,.1,0,.19,0,.28a1.89,1.89,0,0,1-1.9,1.9H53.48A1.49,1.49,0,0,0,52,12.85L51,20h24.9Z"/><circle class="cls-4" cx="63.46" cy="9.23" r="1.97"/><line class="cls-3" x1="58.11" y1="29.17" x2="75.91" y2="29.17"/><path class="cls-3" d="M49.58,27.75l2.19,2.31a.31.31,0,0,0,.41,0l4.18-5.27"/><line class="cls-3" x1="58.11" y1="40.5" x2="75.91" y2="40.5"/><path class="cls-3" d="M49.58,39.08l2.19,2.31a.29.29,0,0,0,.41,0l4.18-5.27"/><line class="cls-3" x1="58.11" y1="51.83" x2="75.91" y2="51.83"/><path class="cls-3" d="M49.58,50.41l2.19,2.31a.3.3,0,0,0,.41,0l4.18-5.28"/><line class="cls-3" x1="58.11" y1="63.16" x2="75.91" y2="63.16"/><path class="cls-3" d="M49.58,61.75l2.19,2.3a.3.3,0,0,0,.41,0l4.18-5.28"/></g></g></svg>