<svg xmlns="http://www.w3.org/2000/svg" viewBox="0 0 112.85 81.48"><defs><style>.cls-1{fill:#28b9e4;}.cls-2{fill:#c5fbfc;}.cls-2,.cls-3{stroke:#1d6487;stroke-linecap:round;stroke-linejoin:round;stroke-width:1.76px;}.cls-3{fill:#fff;}</style></defs><title>Asset 7</title><g id="Layer_2" data-name="Layer 2"><g id="Layer_1-2" data-name="Layer 1"><circle class="cls-1" cx="40.74" cy="40.74" r="40.74"/><rect class="cls-2" x="24.43" y="14.47" width="70.87" height="48.16"/><line class="cls-2" x1="24.8" y1="62.19" x2="52.2" y2="40.38"/><line class="cls-3" x1="67.14" y1="40.37" x2="94.63" y2="61.82"/><path class="cls-2" d="M95.3,14.45,68.35,39.26a4.17,4.17,0,0,1-2.83,1.11H53.83A4.23,4.23,0,0,1,51,39.25L24.43,14.5Z"/><circle class="cls-3" cx="94.47" cy="49.54" r="17.5" transform="translate(24.56 130.1) rotate(-76.72)"/><path class="cls-2" d="M107.2,61.34a3.36,3.36,0,0,0-2-1.51c-1.73-.44-4.49-.78-6.05-1.23a1.92,1.92,0,0,1-1.39-1.85V55.28a.66.66,0,0,1,.25-.5,7.52,7.52,0,0,0,2.09-3.08,4.39,4.39,0,0,0,.21-.76.86.86,0,0,0,.87-.69,27.2,27.2,0,0,0,.58-3.18c0-.94-.34-1.17-.75-.92a6.44,6.44,0,0,0,.21-1.45c.09-4.33-3.14-6.93-7-6.93a6.7,6.7,0,0,0-7,6.93,5.9,5.9,0,0,0,.21,1.45c-.41-.25-.75,0-.75.92a27.2,27.2,0,0,0,.58,3.18.86.86,0,0,0,.87.69c0,.1,0,.19,0,.28a6.29,6.29,0,0,0,2,3.56.66.66,0,0,1,.26.51v1.46a1.92,1.92,0,0,1-1.38,1.85c-1.55.45-3.93.91-5.66,1.35a3.43,3.43,0,0,0-1.87,1.25,17.36,17.36,0,0,0,13,5.83A17.91,17.91,0,0,0,107.2,61.34Z"/></g></g></svg>