<svg xmlns="http://www.w3.org/2000/svg" viewBox="0 0 120.54 81.48"><defs><style>.cls-1{fill:#28b9e4;}.cls-2,.cls-3{fill:#fff;}.cls-2{stroke:#0c6bc2;stroke-width:1.57px;}.cls-2,.cls-3,.cls-4{stroke-linecap:round;stroke-linejoin:round;}.cls-3,.cls-4{stroke:#1d6487;stroke-width:1.45px;}.cls-4{fill:#c5fbfc;}.cls-5{fill:#1d6487;}</style></defs><title>Asset 8</title><g id="Layer_2" data-name="Layer 2"><g id="Layer_1-2" data-name="Layer 1"><circle class="cls-1" cx="40.74" cy="40.74" r="40.74"/><path class="cls-2" d="M112.26,63l7.18,10.1a1,1,0,0,1-.72,1.75H30.13a1,1,0,0,1-.72-1.75L36.6,63"/><path class="cls-2" d="M112.26,63H36.6v-42a4.56,4.56,0,0,1,4.55-4.57H107.7a4.57,4.57,0,0,1,4.56,4.57Z"/><path class="cls-3" d="M118.72,74.88H30.13a1,1,0,0,1-.72-1.75L36.6,63h75.66l7.18,10.1A1,1,0,0,1,118.72,74.88Z"/><path class="cls-3" d="M112.26,21.05V63H36.6v-42a4.56,4.56,0,0,1,4.55-4.57H107.7A4.57,4.57,0,0,1,112.26,21.05Z"/><path class="cls-4" d="M84.41,74.88l-1.17-3.5a.35.35,0,0,0-.3-.17H66a.35.35,0,0,0-.3.17l-1.17,3.5Z"/><rect class="cls-4" x="40.31" y="20.76" width="68.23" height="38.7" rx="1.16"/><line class="cls-3" x1="39.03" y1="65.93" x2="109.93" y2="65.93"/><line class="cls-3" x1="37.8" y1="68.62" x2="111.16" y2="68.62"/><path class="cls-3" d="M48.25,6.6h52.46A1.25,1.25,0,0,1,102,7.85V59.47a0,0,0,0,1,0,0H47a0,0,0,0,1,0,0V7.85A1.25,1.25,0,0,1,48.25,6.6Z"/><circle class="cls-5" cx="50.7" cy="9.68" r="1.1"/><circle class="cls-5" cx="54.93" cy="9.68" r="1.1"/><circle class="cls-5" cx="59.03" cy="9.68" r="1.1"/><line class="cls-3" x1="47" y1="12.77" x2="101.96" y2="12.77"/><line class="cls-3" x1="47.22" y1="26.25" x2="101.96" y2="26.25"/><line class="cls-3" x1="54.31" y1="35.4" x2="65.37" y2="35.4"/><line class="cls-3" x1="54.31" y1="39.93" x2="65.37" y2="39.93"/><line class="cls-3" x1="54.31" y1="44.47" x2="65.37" y2="44.47"/><line class="cls-3" x1="54.31" y1="49" x2="65.37" y2="49"/><line class="cls-3" x1="54.31" y1="53.54" x2="65.37" y2="53.54"/><circle class="cls-3" cx="74.35" cy="32.16" r="2.14" transform="translate(42.07 106.45) rotate(-89.9)"/><line class="cls-3" x1="79.36" y1="30.72" x2="94.91" y2="30.72"/><line class="cls-3" x1="79.36" y1="33.8" x2="84.4" y2="33.8"/><rect class="cls-4" x="73.13" y="38.2" width="24.68" height="16.3"/><circle class="cls-4" cx="60.45" cy="24.6" r="7.17"/><path class="cls-4" d="M65.61,29.63a1.3,1.3,0,0,0-.82-.61c-.7-.18-1.81-.32-2.43-.5a.76.76,0,0,1-.56-.74v-.59a.29.29,0,0,1,.09-.21,2.89,2.89,0,0,0,.84-1.24,1.27,1.27,0,0,0,.09-.3.36.36,0,0,0,.35-.28,9.79,9.79,0,0,0,.23-1.28c0-.38-.13-.47-.3-.37a2,2,0,0,0,.08-.58,2.66,2.66,0,0,0-2.8-2.79,2.69,2.69,0,0,0-2.81,2.79,2,2,0,0,0,.08.58c-.17-.1-.3,0-.3.37a12,12,0,0,0,.23,1.28.36.36,0,0,0,.35.28s0,.08,0,.11A2.46,2.46,0,0,0,58.76,27a.3.3,0,0,1,.1.21v.59a.76.76,0,0,1-.55.74c-.63.18-1.58.37-2.28.55a1.26,1.26,0,0,0-.75.5,6.79,6.79,0,0,0,5.21,2.35A6.54,6.54,0,0,0,65.61,29.63Z"/></g></g></svg>