<svg xmlns="http://www.w3.org/2000/svg" viewBox="0 0 121.41 81.48"><defs><style>.cls-1{fill:#28b9e4;}.cls-2{fill:#c5fbfc;}.cls-2,.cls-3{stroke:#1d6487;stroke-linecap:round;stroke-linejoin:round;stroke-width:3.1px;}.cls-3,.cls-4{fill:#fff;}</style></defs><title>Asset 9</title><g id="Layer_2" data-name="Layer 2"><g id="Layer_1-2" data-name="Layer 1"><circle class="cls-1" cx="40.74" cy="40.74" r="40.74"/><path class="cls-2" d="M33,41.66a7.93,7.93,0,0,1-6.22,7.6,2.65,2.65,0,0,0-2.05,2.58V53L99,53.32c1.35.29,4.58.8,6.68-1,1.79-1.49,1.92-4,2-5.25.27-5.53.43-16.49.25-30.77h8.27l-.28-.06H31a6.1,6.1,0,0,0-6.24,5.93V30A10.1,10.1,0,0,1,29,34.92,7.79,7.79,0,0,1,33,41.66ZM87.81,27.83a1.48,1.48,0,0,1,2.07.29l6.18,8.19,6.18-8.19a1.48,1.48,0,1,1,2.36,1.78l-6.69,8.87,6.69,8.87a1.48,1.48,0,1,1-2.36,1.78l-6.18-8.19-6.18,8.19A1.5,1.5,0,0,1,88.7,50a1.48,1.48,0,0,1-1.18-2.37l6.68-8.87L87.52,29.9A1.46,1.46,0,0,1,87.81,27.83Zm-24.74,0a1.48,1.48,0,0,1,2.07.29l6.18,8.19,6.18-8.19a1.48,1.48,0,0,1,2.36,1.78l-6.69,8.87,6.69,8.87A1.48,1.48,0,0,1,78.68,50a1.5,1.5,0,0,1-1.18-.59l-6.18-8.19-6.18,8.19a1.48,1.48,0,0,1-2.36-1.78l6.69-8.87L62.78,29.9A1.48,1.48,0,0,1,63.07,27.83Zm-24.73,0a1.48,1.48,0,0,1,2.07.29l6.18,8.19,6.18-8.19a1.48,1.48,0,1,1,2.36,1.78l-6.69,8.87,6.69,8.87a1.48,1.48,0,1,1-2.36,1.78l-6.18-8.19-6.18,8.19a1.48,1.48,0,1,1-2.36-1.78l6.69-8.87L38.05,29.9A1.48,1.48,0,0,1,38.34,27.83Z"/><path class="cls-3" d="M107.94,16.34c.18,14.28,0,25.24-.25,30.77-.07,1.25-.2,3.76-2,5.25-2.1,1.76-5.33,1.25-6.68,1L24.71,53h0V65a5.13,5.13,0,0,0,1.42.21h88.7a5,5,0,0,0,5-5V50a1.43,1.43,0,0,0-1-1.41,10.12,10.12,0,0,1,0-19.6,1.43,1.43,0,0,0,1-1.41V17.38a5.1,5.1,0,0,0-.11-1H107.94Z"/><path class="cls-4" d="M44.74,38.77l-6.69,8.87a1.48,1.48,0,1,0,2.36,1.78l6.18-8.19,6.18,8.19a1.48,1.48,0,1,0,2.36-1.78l-6.69-8.87,6.69-8.87a1.48,1.48,0,1,0-2.36-1.78l-6.18,8.19-6.18-8.19a1.48,1.48,0,1,0-2.36,1.78Z"/><path class="cls-4" d="M69.47,38.77l-6.69,8.87a1.48,1.48,0,1,0,2.36,1.78l6.18-8.19,6.18,8.19a1.5,1.5,0,0,0,1.18.59,1.48,1.48,0,0,0,1.18-2.37l-6.69-8.87,6.69-8.87a1.48,1.48,0,0,0-2.36-1.78l-6.18,8.19-6.18-8.19a1.48,1.48,0,0,0-2.36,1.78Z"/><path class="cls-4" d="M94.2,38.77l-6.68,8.87A1.48,1.48,0,0,0,88.7,50a1.5,1.5,0,0,0,1.18-.59l6.18-8.19,6.18,8.19a1.48,1.48,0,1,0,2.36-1.78l-6.69-8.87,6.69-8.87a1.48,1.48,0,1,0-2.36-1.78l-6.18,8.19-6.18-8.19a1.48,1.48,0,0,0-2.07-.29,1.46,1.46,0,0,0-.29,2.07Z"/></g></g></svg>