<svg xmlns="http://www.w3.org/2000/svg" viewBox="0 0 114.78 81.48"><defs><style>.cls-1{fill:#28b9e4;}.cls-2{fill:#d0fdff;}.cls-3{fill:#fff;}.cls-4{fill:none;stroke:#366088;stroke-linecap:round;stroke-linejoin:round;stroke-width:2.13px;}</style></defs><title>Asset 10</title><g id="Layer_2" data-name="Layer 2"><g id="Layer_1-2" data-name="Layer 1"><circle class="cls-1" cx="40.74" cy="40.74" r="40.74"/><path class="cls-2" d="M94.06,50.44l.09,0a1.07,1.07,0,0,1,.51,1.31l0,0a.36.36,0,0,1,0,.09l-7,13.52a.7.7,0,0,1-.06.09s0,0,0,.07a1.07,1.07,0,0,1-1.41.54,7.24,7.24,0,0,0-8.93,2.53,1,1,0,0,1-.88.47,1.11,1.11,0,0,1-.6-.18l0,0a1,1,0,0,1-.29-.09l-44.2-23a1.07,1.07,0,0,1-.45-1.44,1.1,1.1,0,0,1,.52-.48,7.21,7.21,0,0,0-3.27-8,1.06,1.06,0,0,1-.37-1.46l0,0s0-.07,0-.1L34.7,20.74s0,0,0,0l.08-.12,0,0a1.14,1.14,0,0,1,.11-.11l0,0,.13-.09,0,0,.15-.06h0l.14,0h.07a.57.57,0,0,1,.13,0h.09l.12,0,.09,0,.08,0a7.23,7.23,0,0,0,8.86-2.46,1.07,1.07,0,0,1,1.49-.26l0,0L70.13,29.89l8.41.82-42-21.89L18.75,42.92l67,34.88,15.91-30.55-10.4-.19A7.24,7.24,0,0,0,94.06,50.44Z"/><path class="cls-3" d="M78.89,26.25l-3.56-.19.91,1a.64.64,0,0,1,.08.14l5.59,2.91Z"/><path class="cls-2" d="M59.47,32.19A10.86,10.86,0,1,0,70.56,48a10.93,10.93,0,0,0,1.22-4.46l-8.32-1.68a6.11,6.11,0,0,1-2.58-1.18,1.09,1.09,0,0,0,.5,1.41l.33.18a3.27,3.27,0,0,1-.54,6,3.33,3.33,0,0,1-1,.15,3.5,3.5,0,0,1-.65-.07L59,49.46a1.07,1.07,0,0,1-1.9-1l.53-1L57,47.16a1.06,1.06,0,1,1,1-1.89l1.67.87a1.11,1.11,0,0,0,.84.07,1.07,1.07,0,0,0,.65-.54,1.12,1.12,0,0,0-.45-1.53L60.39,44A3.24,3.24,0,0,1,59,39.6,3,3,0,0,1,59.4,39a6.23,6.23,0,0,1-.87-4.55A6.13,6.13,0,0,1,59.47,32.19Z"/><path class="cls-3" d="M41.93,29.91a2.24,2.24,0,0,0-1.69-.15,2.22,2.22,0,0,0-1.45,2.79,2.21,2.21,0,0,0,4.08.35A2.16,2.16,0,0,0,43,31.21,2.2,2.2,0,0,0,41.93,29.91Z"/><polygon class="cls-2" points="51.11 3.76 44.16 10.39 70.55 24.14 51.11 3.76"/><path class="cls-3" d="M46.09,19.78a9.34,9.34,0,0,1-9.94,2.79l-6.27,12a9.31,9.31,0,0,1,3.38,9.9L75.94,66.73a9.31,9.31,0,0,1,10-2.9l6.27-12A9.27,9.27,0,0,1,89,47L73.89,44a13.17,13.17,0,0,1-1.43,5A13,13,0,1,1,62,30a6.28,6.28,0,0,1,2.59-.61ZM44.77,33.89a4.36,4.36,0,1,1-5.17-6.16,4.35,4.35,0,0,1,5.17,6.16ZM77.52,51a4.35,4.35,0,0,1,5.87-1.85,4.35,4.35,0,1,1-4,7.72A4.35,4.35,0,0,1,77.52,51Z"/><path class="cls-3" d="M108,27.17a.93.93,0,0,1-.4-.12L83,14.12a9.27,9.27,0,0,0-5.45-1L64.41,14.61l8.78,9.2,6.29.34a1,1,0,0,1,.78.4L86,31.76a.21.21,0,0,1,0,.06l.07.11a.36.36,0,0,1,0,.09.42.42,0,0,1,0,.1.43.43,0,0,1,0,.11.29.29,0,0,1,0,.09v.21h0l0,.16a.11.11,0,0,0,0,.05,1,1,0,0,1-.36.52l0,0a1,1,0,0,1-.23.13l-.07,0a.9.9,0,0,1-.28,0h-.15l-20-1.94a4.15,4.15,0,0,0-1.22,8.2L73,41.59l.17,0,16.18,3.26,22.2.45,1-17.47Z"/><path class="cls-3" d="M80.35,54.93a2.23,2.23,0,0,0,1.7.15A2.26,2.26,0,0,0,83.35,54h0a2.25,2.25,0,0,0,.15-1.69A2.21,2.21,0,0,0,82.4,51a2.17,2.17,0,0,0-1-.25,2.22,2.22,0,0,0-1,4.19Z"/><path class="cls-4" d="M85.17,32.42l-20-1.94a5.22,5.22,0,0,0-5.63,4.2h0a5.21,5.21,0,0,0,4.09,6.11L89.25,46l23.32.48"/><path class="cls-4" d="M62.16,13.79l15.25-1.73a10.3,10.3,0,0,1,6.07,1.11L108.14,26.1l5.57.8"/><polyline class="cls-4" points="72.72 24.85 79.44 25.21 85.17 32.42"/><polyline class="cls-4" points="42.35 10.65 51.16 2.25 75.48 27.75"/><path class="cls-4" d="M60.3,39.63a1.74,1.74,0,0,0-.33.46h0A2.18,2.18,0,0,0,60.9,43l.33.17a2.17,2.17,0,0,1,.92,2.93l0,0a2.18,2.18,0,0,1-2.93.92l-1.67-.87"/><line class="cls-4" x1="58.9" y1="47.26" x2="58.01" y2="48.96"/><path class="cls-4" d="M72.87,42.65A11.93,11.93,0,1,1,62.23,31.09"/><polyline class="cls-4" points="103.39 46.21 86.19 79.23 17.32 43.37 36.07 7.37 83.91 32.29"/><line class="cls-4" x1="28.61" y1="34.75" x2="35.65" y2="21.23"/><line class="cls-4" x1="75.85" y1="67.88" x2="31.66" y2="44.86"/><line class="cls-4" x1="93.67" y1="51.41" x2="86.63" y2="64.94"/><line class="cls-4" x1="45.92" y1="18.48" x2="69.78" y2="30.9"/><path class="cls-4" d="M45.83,18.41a8.31,8.31,0,0,1-10.18,2.82"/><path class="cls-4" d="M89.91,46.44a8.25,8.25,0,0,0,3.75,5"/><path class="cls-4" d="M32,45a8.31,8.31,0,0,0-3.48-10.09"/><path class="cls-4" d="M76.27,68.06a8.31,8.31,0,0,1,10.24-2.91"/><circle class="cls-4" cx="40.92" cy="31.88" r="3.29"/><circle class="cls-4" cx="81.39" cy="52.96" r="3.29"/></g></g></svg>