<svg xmlns="http://www.w3.org/2000/svg" viewBox="0 0 120.89 91.69"><defs><style>.cls-1{fill:#28b9e4;}.cls-2{fill:#c5fbfc;}.cls-2,.cls-4{stroke:#1d6487;stroke-width:1.98px;}.cls-2,.cls-3,.cls-4,.cls-5,.cls-6{stroke-linecap:round;stroke-linejoin:round;}.cls-3{fill:none;}.cls-3,.cls-5,.cls-6{stroke:#226b80;stroke-width:2.24px;}.cls-4,.cls-5{fill:#fff;}.cls-6{fill:#b8e4c9;}</style></defs><title>Asset 11</title><g id="Layer_2" data-name="Layer 2"><g id="Layer_1-2" data-name="Layer 1"><circle class="cls-1" cx="40.74" cy="45.85" r="40.74"/><circle class="cls-2" cx="58.19" cy="29.07" r="28.08"/><path class="cls-3" d="M51.19,84.63h-8.6A12.27,12.27,0,0,1,30.3,72.37V52.87"/><polygon class="cls-2" points="60.5 84.63 51.19 79.27 51.19 90 60.5 84.63"/><path class="cls-3" d="M98.16,6.66h8.6a12.27,12.27,0,0,1,12.29,12.26v19.5"/><polygon class="cls-2" points="88.84 6.66 98.16 12.03 98.16 1.29 88.84 6.66"/><circle class="cls-4" cx="91.81" cy="62.62" r="28.08"/><path class="cls-3" d="M47.81,36.38c0,4.33,4.31,7.83,9.62,7.83s9.62-3.5,9.62-7.83-4.31-7.82-9.62-7.82c-4.87,0-9-3.26-9-7.22s3.95-7.18,8.82-7.18,8.82,3.21,8.82,7.18"/><line class="cls-5" x1="57.43" y1="46.61" x2="57.43" y2="11.5"/><rect class="cls-5" x="101.92" y="53.06" width="5.5" height="24.79" rx="0.65"/><rect class="cls-4" x="101.92" y="53.06" width="5.5" height="24.79" rx="0.65"/><rect class="cls-5" x="93.28" y="61.25" width="5.2" height="16.59" rx="0.65"/><rect class="cls-6" x="93.28" y="61.25" width="5.2" height="16.59" rx="0.65"/><rect class="cls-5" x="75.35" y="64.32" width="5.2" height="13.52" rx="0.65"/><rect class="cls-6" x="75.35" y="64.32" width="5.2" height="13.52" rx="0.65"/><rect class="cls-5" x="83.92" y="57.77" width="5.63" height="20.08" rx="0.65"/><rect class="cls-4" x="83.92" y="57.77" width="5.63" height="20.08" rx="0.65"/><polyline class="cls-5" points="77.95 56.27 86.8 50.37 95.52 53.56 104.63 47.29"/></g></g></svg>