<?xml version="1.0"?>
<svg xmlns="http://www.w3.org/2000/svg" xmlns:xlink="http://www.w3.org/1999/xlink" xmlns:svgjs="http://svgjs.com/svgjs" version="1.1" width="512" height="512" x="0" y="0" viewBox="0 0 512 512" style="enable-background:new 0 0 512 512" xml:space="preserve" class=""><g><path xmlns="http://www.w3.org/2000/svg" d="m294.933594 337.949219c0-5.542969-4.496094-10.039063-10.039063-10.039063h-201.800781c-5.542969 0-10.039062 4.496094-10.039062 10.039063s4.496093 10.039062 10.039062 10.039062h201.800781c5.542969 0 10.039063-4.496093 10.039063-10.039062zm0 0" fill="#00608c" data-original="#000000" style="" class=""/><path xmlns="http://www.w3.org/2000/svg" d="m414.964844 423.734375h-43.320313v-161.671875c0-5.542969-4.496093-10.039062-10.039062-10.039062s-10.039063 4.496093-10.039063 10.039062v161.671875h-205.191406c-5.542969 0-10.039062 4.496094-10.039062 10.039063 0 32.054687-26.078126 58.136718-58.125 58.148437-32.054688-.011719-58.132813-26.09375-58.132813-58.148437v-326.5h11.339844v13.917968c0 5.542969 4.496093 10.039063 10.039062 10.039063h56.199219c5.542969 0 10.039062-4.496094 10.039062-10.039063v-13.917968h156.253907v13.917968c0 5.542969 4.496093 10.039063 10.042969 10.039063h56.195312c5.542969 0 10.039062-4.496094 10.039062-10.039063v-13.917968h11.339844v74.476562c0 5.542969 4.496094 10.039062 10.039063 10.039062s10.039062-4.496093 10.039062-10.039062v-84.515625c0-5.542969-4.496093-10.039063-10.039062-10.039063h-21.378907v-13.917968c0-5.542969-4.496093-10.039063-10.039062-10.039063h-18.058594v-53.199219c0-5.542968-4.496094-10.039062-10.039062-10.039062-5.542969 0-10.039063 4.496094-10.039063 10.039062v53.199219h-18.058593c-5.542969 0-10.039063 4.496094-10.039063 10.039063v13.917968h-156.257813v-13.917968c0-5.542969-4.496093-10.039063-10.039062-10.039063h-18.058594v-53.199219c0-5.542968-4.496094-10.039062-10.039062-10.039062-5.546875 0-10.042969 4.496094-10.042969 10.039062v53.199219h-18.058594c-5.542969 0-10.039062 4.496094-10.039062 10.039063v13.917968h-21.378907c-5.542968 0-10.039062 4.496094-10.039062 10.039063v336.539063c0 43.089843 35.035156 78.175781 78.125 78.222656.019531 0 .039062.003906.0625.003906h268.585938c43.136718 0 78.230468-35.09375 78.230468-78.226562 0-5.542969-4.496094-10.039063-10.039062-10.039063zm-130.9375-340.417969h36.121094v27.835938h-36.121094zm-232.53125 0h36.121094v27.835938h-36.121094zm295.277344 408.605469h-216.273438c13.574219-12.214844 22.867188-29.109375 25.3125-48.109375h248.242188c-4.769532 27.296875-28.640626 48.109375-57.28125 48.109375zm0 0" fill="#00608c" data-original="#000000" style="" class=""/><path xmlns="http://www.w3.org/2000/svg" d="m83.09375 302.707031h201.800781c3.621094 0 6.964844-1.949219 8.742188-5.105469 1.78125-3.15625 1.722656-7.023437-.148438-10.125l-85.5-141.527343c-1.820312-3.007813-5.078125-4.847657-8.59375-4.847657s-6.777343 1.839844-8.59375 4.847657l-34.074219 56.402343-6.808593-11.265624c-1.816407-3.007813-5.078125-4.847657-8.59375-4.847657s-6.773438 1.839844-8.59375 4.847657l-58.230469 96.390624c-1.875 3.101563-1.929688 6.96875-.152344 10.125 1.78125 3.15625 5.125 5.105469 8.746094 5.105469zm116.300781-132.148437 67.703125 112.074218h-61.875l-36.769531-60.863281zm-58.066406 45.132812 40.4375 66.941406h-80.878906zm0 0" fill="#00608c" data-original="#000000" style="" class=""/><path xmlns="http://www.w3.org/2000/svg" d="m116.121094 364.027344c-5.546875 0-10.039063 4.496094-10.039063 10.039062 0 5.542969 4.492188 10.039063 10.039063 10.039063h95.515625c5.542969 0 10.039062-4.496094 10.039062-10.039063 0-5.542968-4.496093-10.039062-10.039062-10.039062zm0 0" fill="#00608c" data-original="#000000" style="" class=""/><path xmlns="http://www.w3.org/2000/svg" d="m260.21875 368.496094c-2.386719-3.570313-6.96875-5.296875-11.109375-4.078125-3.980469 1.171875-6.886719 4.683593-7.246094 8.828125-.359375 4.167968 2.054688 8.25 5.863281 9.957031 3.78125 1.695313 8.292969.894531 11.234376-2.039063 3.351562-3.339843 3.882812-8.742187 1.257812-12.667968zm0 0" fill="#00608c" data-original="#000000" style="" class=""/><path xmlns="http://www.w3.org/2000/svg" d="m370.917969 218.066406c-1.605469-3.886718-5.609375-6.410156-9.808594-6.183594-4.175781.226563-7.84375 3.109376-9.0625 7.109376-1.203125 3.945312.210937 8.367187 3.492187 10.875 3.375 2.585937 8.144532 2.746093 11.6875.386718 3.929688-2.617187 5.496094-7.824218 3.691407-12.1875zm0 0" fill="#00608c" data-original="#000000" style="" class=""/></g></svg>
