<svg xmlns="http://www.w3.org/2000/svg" width="101.772" height="54.528" viewBox="0 0 101.772 54.528">
  <g id="noun_Shipping_3416114" transform="translate(-0.46 -8.834)">
    <path id="Path_11" data-name="Path 11" d="M32.378,14.554a1.523,1.523,0,0,0,0-3.046H4.454a1.523,1.523,0,1,0,0,3.046Z" transform="translate(4.493 4.868)"/>
    <path id="Path_12" data-name="Path 12" d="M31.424,15.708a1.52,1.52,0,0,0-1.52-1.526H1.98a1.523,1.523,0,0,0,0,3.046H29.9A1.519,1.519,0,0,0,31.424,15.708Z" transform="translate(0 9.737)"/>
    <path id="Path_13" data-name="Path 13" d="M31.976,18.381a1.525,1.525,0,0,0-1.526-1.526H2.532a1.523,1.523,0,1,0,0,3.046H30.45A1.519,1.519,0,0,0,31.976,18.381Z" transform="translate(0.994 14.603)"/>
    <path id="Path_14" data-name="Path 14" d="M16.383,22.114a5.949,5.949,0,1,0,5.949,5.949A5.953,5.953,0,0,0,16.383,22.114Zm0,8.854a2.9,2.9,0,1,1,2.9-2.9A2.905,2.905,0,0,1,16.383,30.968Z" transform="translate(18.159 24.177)"/>
    <path id="Path_15" data-name="Path 15" d="M31.7,22.114a5.949,5.949,0,1,0,5.949,5.949A5.958,5.958,0,0,0,31.7,22.114Zm0,8.854a2.9,2.9,0,1,1,2.9-2.9A2.91,2.91,0,0,1,31.7,30.968Z" transform="translate(46.032 24.177)"/>
    <path id="Path_16" data-name="Path 16" d="M35.9,13.895H27.2a1.525,1.525,0,0,0-1.526,1.523V25.959A1.523,1.523,0,0,0,27.2,27.482H43.127a1.518,1.518,0,0,0,1.436-2.017C43.635,22.752,40.264,13.895,35.9,13.895ZM28.722,24.436V16.941H35.9c1.14,0,3.345,3.371,5.029,7.494Z" transform="translate(45.908 9.214)"/>
    <path id="Path_17" data-name="Path 17" d="M97.578,44.19V38.509a2.9,2.9,0,0,0-.226-1.128l-5.37-12.853a1.4,1.4,0,0,0-.1-.195c-2.567-4.273-5.229-8.106-9.553-8.106H71.07a10.081,10.081,0,0,0-3.052.477V14.58a5.753,5.753,0,0,0-5.746-5.746H2.8a1.523,1.523,0,1,0,0,3.046H62.27a2.7,2.7,0,0,1,2.7,2.7V51.072H44.117a11.124,11.124,0,0,0-22.125,0h-5.2a2.7,2.7,0,0,1-2.7-2.7V37.553H11.048V48.37a5.753,5.753,0,0,0,5.746,5.748h5.311a11.11,11.11,0,0,0,21.9,0H65.291a11.11,11.11,0,0,0,21.9,0h9.218a4.341,4.341,0,0,0,4.335-4.338V48.37A4.354,4.354,0,0,0,97.578,44.19ZM33.057,60.315a8.075,8.075,0,1,1,8.075-8.073A8.084,8.084,0,0,1,33.057,60.315Zm43.189,0a8.075,8.075,0,1,1,8.07-8.073A8.084,8.084,0,0,1,76.246,60.315ZM97.7,49.78a1.291,1.291,0,0,1-1.289,1.292H87.3a11.1,11.1,0,0,0-19.287-6.287V19.97a7.417,7.417,0,0,1,3.052-.694h11.26c2.711,0,4.8,3.08,6.885,6.532l5.317,12.7v7.043a1.523,1.523,0,0,0,1.526,1.523h.353A1.291,1.291,0,0,1,97.7,48.37v1.41Z" transform="translate(1.484)"/>
  </g>
</svg>
